<?xml version="1.0" encoding="UTF-8"?> <svg xmlns="http://www.w3.org/2000/svg" width="85.026" height="71.697" viewBox="0 0 85.026 71.697"><defs><style>.a{fill:#d1e7ff;}</style></defs><path class="a" d="M65.621,66.117q-8.857,0-14.55-5.588T45.377,45.873a34.662,34.662,0,0,1,1.054-8.435,95.244,95.244,0,0,1,4.639-12.652L63.091-5.58H83.967L74.689,27.949a17.33,17.33,0,0,1,8.33,6.853,19.984,19.984,0,0,1,3.058,11.071q0,9.068-5.8,14.656A20.267,20.267,0,0,1,65.621,66.117Zm-44.327,0q-8.857,0-14.55-5.588T1.05,45.873A34.663,34.663,0,0,1,2.1,37.438,95.244,95.244,0,0,1,6.744,24.786L18.764-5.58H39.64L30.362,27.949a17.33,17.33,0,0,1,8.33,6.853,19.984,19.984,0,0,1,3.058,11.071q0,9.068-5.8,14.656A20.267,20.267,0,0,1,21.294,66.117Z" transform="translate(-1.05 5.58)"></path></svg> 